<svg width="179" height="30" viewBox="0 0 179 30" fill="none" xmlns="http://www.w3.org/2000/svg">
<path d="M6 12C6 12 6 24 12 24C18 24 18 12 18 12" stroke="#CC2B52" stroke-width="2"/>
<path d="M24 18C24 18 24 6 18 6C12 6 12 18 12 18" stroke="black" stroke-width="2"/>
<line x1="12" y1="20" x2="12" y2="23" stroke="#CC2B52" stroke-width="2"/>
<line x1="18" y1="7" x2="18" y2="10" stroke="black" stroke-width="2"/>
<path d="M40.5957 9.60742L42.9951 16.1289L45.5928 9.60742H48.2246L44.4512 19H41.6348L39.1807 12.6836L36.7334 19H33.917L30.1367 9.60742H32.7754L35.3184 15.9922L37.7725 9.60742H40.5957ZM60.249 18.5352C59.4788 18.7904 58.7087 18.9727 57.9385 19.082C57.1729 19.196 56.389 19.2529 55.5869 19.2529C54.5615 19.2529 53.6478 19.1436 52.8457 18.9248C52.0482 18.7015 51.376 18.3802 50.8291 17.9609C50.2822 17.5417 49.8652 17.029 49.5781 16.4229C49.291 15.8167 49.1475 15.1309 49.1475 14.3652C49.1475 13.6543 49.291 12.9958 49.5781 12.3896C49.8698 11.779 50.2799 11.2503 50.8086 10.8037C51.3418 10.3525 51.9844 10.0016 52.7363 9.75098C53.4883 9.49577 54.3268 9.36816 55.252 9.36816C56.1042 9.36816 56.8835 9.48438 57.5898 9.7168C58.3008 9.94466 58.9092 10.2842 59.415 10.7354C59.9255 11.1865 60.3197 11.7425 60.5977 12.4033C60.8802 13.0641 61.0215 13.8252 61.0215 14.6865V15.3154H51.7656C51.8477 15.6117 51.9821 15.8828 52.1689 16.1289C52.3604 16.375 52.6178 16.5846 52.9414 16.7578C53.265 16.931 53.6615 17.0654 54.1309 17.1611C54.6048 17.2568 55.1699 17.3047 55.8262 17.3047C56.291 17.3047 56.7467 17.2773 57.1934 17.2227C57.64 17.1634 58.057 17.0882 58.4443 16.9971C58.8317 16.9014 59.1803 16.7965 59.4902 16.6826C59.8047 16.5687 60.0576 16.4548 60.249 16.3408V18.5352ZM58.499 13.4561C58.4762 13.2236 58.4056 12.9844 58.2871 12.7383C58.1732 12.4876 57.9909 12.262 57.7402 12.0615C57.4896 11.861 57.1615 11.6969 56.7559 11.5693C56.3503 11.4372 55.8444 11.3711 55.2383 11.3711C54.6686 11.3711 54.1764 11.4417 53.7617 11.583C53.347 11.7243 52.9984 11.8997 52.7158 12.1094C52.4378 12.319 52.2214 12.5446 52.0664 12.7861C51.9115 13.0277 51.8112 13.251 51.7656 13.4561H58.499ZM65.8613 9.60742V10.6396C66.0846 10.4984 66.3262 10.3525 66.5859 10.2021C66.8503 10.0518 67.1351 9.91504 67.4404 9.79199C67.7503 9.66895 68.0807 9.56868 68.4316 9.49121C68.7871 9.40918 69.1699 9.36816 69.5801 9.36816C69.9811 9.36816 70.332 9.41146 70.6328 9.49805C70.9336 9.58008 71.1934 9.68945 71.4121 9.82617C71.6354 9.95833 71.8245 10.1087 71.9795 10.2773C72.1344 10.4414 72.2689 10.6055 72.3828 10.7695C72.7064 10.5599 73.0254 10.3685 73.3398 10.1953C73.6543 10.0221 73.971 9.87402 74.29 9.75098C74.609 9.62793 74.9349 9.53451 75.2676 9.4707C75.6003 9.40234 75.9466 9.36816 76.3066 9.36816C76.8809 9.36816 77.3936 9.44792 77.8447 9.60742C78.3005 9.76693 78.6855 9.98568 79 10.2637C79.3145 10.5417 79.5537 10.8698 79.7178 11.248C79.8864 11.6217 79.9707 12.0228 79.9707 12.4512V19H77.4346V12.8135C77.4346 12.5628 77.3958 12.3464 77.3184 12.1641C77.2409 11.9818 77.1361 11.8337 77.0039 11.7197C76.8763 11.6058 76.7236 11.5215 76.5459 11.4668C76.3727 11.4121 76.1882 11.3848 75.9922 11.3848C75.0807 11.3848 74.0417 11.7949 72.875 12.6152C72.8887 12.6927 72.8978 12.7839 72.9023 12.8887C72.9115 12.9935 72.916 13.0983 72.916 13.2031V19H70.3799V12.7588C70.3799 12.5081 70.3411 12.2962 70.2637 12.123C70.1862 11.9453 70.0791 11.8018 69.9424 11.6924C69.8102 11.583 69.6553 11.5055 69.4775 11.46C69.3044 11.4098 69.1198 11.3848 68.9238 11.3848C68.6868 11.3848 68.4362 11.4189 68.1719 11.4873C67.9121 11.5557 67.6478 11.6514 67.3789 11.7744C67.1146 11.8975 66.8525 12.0433 66.5928 12.2119C66.3376 12.3805 66.0938 12.5628 65.8613 12.7588V19H63.3252V9.60742H65.8613ZM90.8398 19V18.0771C90.5163 18.2549 90.1676 18.4121 89.7939 18.5488C89.4248 18.6855 89.0397 18.8018 88.6387 18.8975C88.2376 18.9932 87.8229 19.0638 87.3945 19.1094C86.9707 19.1595 86.5423 19.1846 86.1094 19.1846C85.6035 19.1846 85.1136 19.1367 84.6396 19.041C84.1702 18.9453 83.7533 18.7904 83.3887 18.5762C83.0241 18.362 82.7301 18.0817 82.5068 17.7354C82.2881 17.389 82.1787 16.9652 82.1787 16.4639C82.1787 15.8304 82.3519 15.304 82.6982 14.8848C83.0446 14.4609 83.5732 14.1146 84.2842 13.8457C84.9951 13.5768 85.8929 13.3695 86.9775 13.2236C88.0667 13.0778 89.3542 12.9639 90.8398 12.8818V12.6836C90.8398 12.5286 90.7988 12.376 90.7168 12.2256C90.6348 12.0706 90.4844 11.9362 90.2656 11.8223C90.0514 11.7038 89.7552 11.6081 89.377 11.5352C89.0033 11.4622 88.5247 11.4258 87.9414 11.4258C87.4811 11.4258 87.0254 11.4508 86.5742 11.501C86.1276 11.5465 85.6947 11.6104 85.2754 11.6924C84.8607 11.7744 84.4665 11.8701 84.0928 11.9795C83.7191 12.0889 83.3796 12.2028 83.0742 12.3213V10.0654C83.3932 9.9834 83.751 9.90365 84.1475 9.82617C84.5439 9.7487 84.9564 9.68262 85.3848 9.62793C85.8132 9.56868 86.2461 9.52311 86.6836 9.49121C87.1211 9.45475 87.5404 9.43652 87.9414 9.43652C88.7298 9.43652 89.4567 9.5026 90.1221 9.63477C90.7874 9.76237 91.3594 9.96289 91.8379 10.2363C92.321 10.5098 92.6969 10.8561 92.9658 11.2754C93.2393 11.6947 93.376 12.1937 93.376 12.7725V19H90.8398ZM90.8398 14.7139C89.8646 14.7503 89.0352 14.8027 88.3516 14.8711C87.6725 14.9395 87.1074 15.0192 86.6562 15.1104C86.2051 15.2015 85.8496 15.2995 85.5898 15.4043C85.3346 15.5091 85.1432 15.6162 85.0156 15.7256C84.888 15.835 84.8083 15.9443 84.7764 16.0537C84.749 16.1631 84.7354 16.2633 84.7354 16.3545C84.7354 16.4639 84.765 16.571 84.8242 16.6758C84.8835 16.776 84.986 16.8649 85.1318 16.9424C85.2822 17.0199 85.4805 17.0814 85.7266 17.127C85.9727 17.1725 86.2826 17.1953 86.6562 17.1953C87.071 17.1953 87.4766 17.1634 87.873 17.0996C88.2695 17.0358 88.6455 16.9492 89.001 16.8398C89.3564 16.7259 89.6891 16.5938 89.999 16.4434C90.3135 16.2884 90.5938 16.1243 90.8398 15.9512V14.7139ZM105.195 19C105.15 18.4896 105.027 18.043 104.826 17.6602C104.626 17.2728 104.373 16.9401 104.067 16.6621C103.767 16.3841 103.425 16.154 103.042 15.9717C102.664 15.7894 102.274 15.6458 101.873 15.541C101.472 15.4316 101.071 15.3564 100.67 15.3154C100.273 15.2699 99.9043 15.2471 99.5625 15.2471H98.8105V19H96.2744V9.60742H98.8105V13.2305H99.3301C99.681 13.2305 100.048 13.2031 100.431 13.1484C100.813 13.0938 101.192 13.0072 101.565 12.8887C101.944 12.7702 102.306 12.6175 102.652 12.4307C102.999 12.2438 103.309 12.016 103.582 11.7471C103.855 11.4782 104.083 11.1683 104.266 10.8174C104.448 10.4619 104.562 10.0586 104.607 9.60742H107.191C107.146 10.1042 107.046 10.5531 106.891 10.9541C106.74 11.3551 106.551 11.7152 106.323 12.0342C106.1 12.3486 105.849 12.6243 105.571 12.8613C105.293 13.0983 105.008 13.3034 104.717 13.4766C104.425 13.6452 104.133 13.7865 103.842 13.9004C103.555 14.0098 103.286 14.0941 103.035 14.1533C103.354 14.2035 103.685 14.2832 104.026 14.3926C104.373 14.4974 104.715 14.6387 105.052 14.8164C105.389 14.9896 105.71 15.2038 106.016 15.459C106.326 15.7142 106.604 16.0127 106.85 16.3545C107.096 16.6963 107.301 17.0859 107.465 17.5234C107.629 17.9609 107.734 18.4531 107.779 19H105.195ZM120.433 18.5352C119.662 18.7904 118.892 18.9727 118.122 19.082C117.356 19.196 116.573 19.2529 115.771 19.2529C114.745 19.2529 113.831 19.1436 113.029 18.9248C112.232 18.7015 111.56 18.3802 111.013 17.9609C110.466 17.5417 110.049 17.029 109.762 16.4229C109.475 15.8167 109.331 15.1309 109.331 14.3652C109.331 13.6543 109.475 12.9958 109.762 12.3896C110.053 11.779 110.464 11.2503 110.992 10.8037C111.525 10.3525 112.168 10.0016 112.92 9.75098C113.672 9.49577 114.51 9.36816 115.436 9.36816C116.288 9.36816 117.067 9.48438 117.773 9.7168C118.484 9.94466 119.093 10.2842 119.599 10.7354C120.109 11.1865 120.503 11.7425 120.781 12.4033C121.064 13.0641 121.205 13.8252 121.205 14.6865V15.3154H111.949C112.031 15.6117 112.166 15.8828 112.353 16.1289C112.544 16.375 112.801 16.5846 113.125 16.7578C113.449 16.931 113.845 17.0654 114.314 17.1611C114.788 17.2568 115.354 17.3047 116.01 17.3047C116.475 17.3047 116.93 17.2773 117.377 17.2227C117.824 17.1634 118.241 17.0882 118.628 16.9971C119.015 16.9014 119.364 16.7965 119.674 16.6826C119.988 16.5687 120.241 16.4548 120.433 16.3408V18.5352ZM118.683 13.4561C118.66 13.2236 118.589 12.9844 118.471 12.7383C118.357 12.4876 118.174 12.262 117.924 12.0615C117.673 11.861 117.345 11.6969 116.939 11.5693C116.534 11.4372 116.028 11.3711 115.422 11.3711C114.852 11.3711 114.36 11.4417 113.945 11.583C113.531 11.7243 113.182 11.8997 112.899 12.1094C112.621 12.319 112.405 12.5446 112.25 12.7861C112.095 13.0277 111.995 13.251 111.949 13.4561H118.683ZM135.663 14.3105C135.663 15.1172 135.515 15.8304 135.219 16.4502C134.923 17.0654 134.499 17.5804 133.947 17.9951C133.396 18.4098 132.726 18.7243 131.938 18.9385C131.154 19.1481 130.272 19.2529 129.292 19.2529C128.312 19.2529 127.426 19.1481 126.633 18.9385C125.844 18.7243 125.172 18.4098 124.616 17.9951C124.06 17.5804 123.632 17.0654 123.331 16.4502C123.03 15.8304 122.88 15.1172 122.88 14.3105C122.88 13.5039 123.03 12.793 123.331 12.1777C123.632 11.5579 124.06 11.0407 124.616 10.626C125.172 10.2113 125.844 9.89909 126.633 9.68945C127.426 9.47526 128.312 9.36816 129.292 9.36816C130.272 9.36816 131.154 9.47526 131.938 9.68945C132.726 9.89909 133.396 10.2113 133.947 10.626C134.499 11.0407 134.923 11.5579 135.219 12.1777C135.515 12.793 135.663 13.5039 135.663 14.3105ZM133.1 14.3105C133.1 13.9596 133.043 13.611 132.929 13.2646C132.819 12.9137 132.621 12.5993 132.334 12.3213C132.051 12.0433 131.664 11.8177 131.172 11.6445C130.68 11.4714 130.053 11.3848 129.292 11.3848C128.782 11.3848 128.333 11.4258 127.945 11.5078C127.558 11.5853 127.223 11.6947 126.94 11.8359C126.658 11.9772 126.421 12.1436 126.229 12.335C126.038 12.5218 125.885 12.7246 125.771 12.9434C125.658 13.1576 125.576 13.3831 125.525 13.6201C125.48 13.8525 125.457 14.0827 125.457 14.3105C125.457 14.543 125.48 14.7777 125.525 15.0146C125.576 15.2516 125.658 15.4795 125.771 15.6982C125.885 15.9124 126.038 16.113 126.229 16.2998C126.421 16.4867 126.658 16.6507 126.94 16.792C127.223 16.9287 127.558 17.0381 127.945 17.1201C128.333 17.1976 128.782 17.2363 129.292 17.2363C130.053 17.2363 130.68 17.1497 131.172 16.9766C131.664 16.8034 132.051 16.5778 132.334 16.2998C132.621 16.0218 132.819 15.7096 132.929 15.3633C133.043 15.0124 133.1 14.6615 133.1 14.3105ZM144.14 19H141.187L136.436 9.60742H139.266L142.684 16.6758L146.095 9.60742H148.925L144.14 19ZM160.806 18.5352C160.035 18.7904 159.265 18.9727 158.495 19.082C157.729 19.196 156.946 19.2529 156.144 19.2529C155.118 19.2529 154.204 19.1436 153.402 18.9248C152.605 18.7015 151.933 18.3802 151.386 17.9609C150.839 17.5417 150.422 17.029 150.135 16.4229C149.848 15.8167 149.704 15.1309 149.704 14.3652C149.704 13.6543 149.848 12.9958 150.135 12.3896C150.426 11.779 150.837 11.2503 151.365 10.8037C151.898 10.3525 152.541 10.0016 153.293 9.75098C154.045 9.49577 154.883 9.36816 155.809 9.36816C156.661 9.36816 157.44 9.48438 158.146 9.7168C158.857 9.94466 159.466 10.2842 159.972 10.7354C160.482 11.1865 160.876 11.7425 161.154 12.4033C161.437 13.0641 161.578 13.8252 161.578 14.6865V15.3154H152.322C152.404 15.6117 152.539 15.8828 152.726 16.1289C152.917 16.375 153.174 16.5846 153.498 16.7578C153.822 16.931 154.218 17.0654 154.688 17.1611C155.161 17.2568 155.727 17.3047 156.383 17.3047C156.848 17.3047 157.303 17.2773 157.75 17.2227C158.197 17.1634 158.614 17.0882 159.001 16.9971C159.388 16.9014 159.737 16.7965 160.047 16.6826C160.361 16.5687 160.614 16.4548 160.806 16.3408V18.5352ZM159.056 13.4561C159.033 13.2236 158.962 12.9844 158.844 12.7383C158.73 12.4876 158.548 12.262 158.297 12.0615C158.046 11.861 157.718 11.6969 157.312 11.5693C156.907 11.4372 156.401 11.3711 155.795 11.3711C155.225 11.3711 154.733 11.4417 154.318 11.583C153.904 11.7243 153.555 11.8997 153.272 12.1094C152.994 12.319 152.778 12.5446 152.623 12.7861C152.468 13.0277 152.368 13.251 152.322 13.4561H159.056ZM172.522 11.7334C172.454 11.7106 172.354 11.681 172.222 11.6445C172.094 11.6035 171.944 11.5648 171.771 11.5283C171.597 11.4873 171.406 11.4531 171.196 11.4258C170.991 11.3984 170.779 11.3848 170.561 11.3848C170.105 11.3848 169.679 11.4417 169.282 11.5557C168.89 11.665 168.523 11.8132 168.182 12C167.84 12.1823 167.521 12.3919 167.225 12.6289C166.933 12.8613 166.664 13.1006 166.418 13.3467V19H163.882V9.60742H166.418V11.1318C166.723 10.904 167.035 10.6852 167.354 10.4756C167.678 10.2614 168.013 10.0723 168.359 9.9082C168.71 9.74414 169.079 9.61426 169.467 9.51855C169.854 9.41829 170.264 9.36816 170.697 9.36816C170.861 9.36816 171.028 9.37728 171.196 9.39551C171.369 9.40918 171.536 9.42741 171.695 9.4502C171.859 9.47298 172.012 9.49805 172.153 9.52539C172.295 9.55273 172.418 9.58008 172.522 9.60742V11.7334Z" fill="#CC2B52"/>
</svg>
